<svg width="70" height="70" viewBox="0 0 70 70" fill="none" xmlns="http://www.w3.org/2000/svg">
<path d="M50.6539 49.3064H43.8154C47.3816 47.0585 50.0165 43.5979 51.2355 39.5612C52.4545 35.5245 52.1756 31.1831 50.45 27.3358C48.7245 23.4884 45.6685 20.3938 41.8441 18.6212C38.0197 16.8486 33.6841 16.5172 29.6349 17.6881C25.5858 18.8589 22.0954 21.4532 19.8058 24.9937C17.5162 28.5343 16.5814 32.7828 17.1734 36.958C17.7654 41.1331 19.8444 44.954 23.0279 47.7177C26.2114 50.4814 30.2852 52.0021 34.5001 52H50.6539C51.0109 52 51.3533 51.8581 51.6057 51.6055C51.8582 51.353 52 51.0104 52 50.6532C52 50.296 51.8582 49.9534 51.6057 49.7009C51.3533 49.4483 51.0109 49.3064 50.6539 49.3064ZM19.6925 34.4916C19.6925 31.5615 20.561 28.6972 22.1881 26.2609C23.8151 23.8246 26.1278 21.9258 28.8335 20.8045C31.5392 19.6832 34.5165 19.3898 37.3889 19.9614C40.2613 20.5331 42.8998 21.944 44.9707 24.0159C47.0415 26.0878 48.4518 28.7276 49.0232 31.6014C49.5945 34.4752 49.3013 37.4539 48.1805 40.161C47.0598 42.868 45.1619 45.1818 42.7268 46.8097C40.2917 48.4375 37.4288 49.3064 34.5001 49.3064C30.5743 49.3019 26.8105 47.7397 24.0345 44.9623C21.2585 42.185 19.697 38.4193 19.6925 34.4916ZM34.5001 30.4512C35.2988 30.4512 36.0796 30.2142 36.7438 29.7703C37.4079 29.3263 37.9255 28.6953 38.2311 27.957C38.5368 27.2187 38.6168 26.4063 38.461 25.6225C38.3051 24.8388 37.9205 24.1188 37.3557 23.5538C36.7909 22.9887 36.0714 22.6039 35.288 22.448C34.5046 22.2921 33.6926 22.3721 32.9547 22.6779C32.2168 22.9837 31.586 23.5016 31.1423 24.1661C30.6985 24.8305 30.4617 25.6117 30.4617 26.4108C30.4617 27.4824 30.8872 28.5101 31.6445 29.2678C32.4019 30.0255 33.4291 30.4512 34.5001 30.4512ZM34.5001 25.064C34.7664 25.064 35.0266 25.143 35.248 25.291C35.4694 25.4389 35.6419 25.6493 35.7438 25.8954C35.8457 26.1415 35.8723 26.4123 35.8204 26.6735C35.7685 26.9348 35.6403 27.1748 35.452 27.3631C35.2637 27.5515 35.0239 27.6797 34.7627 27.7317C34.5016 27.7837 34.2309 27.757 33.985 27.6551C33.739 27.5531 33.5288 27.3805 33.3808 27.159C33.2329 26.9375 33.154 26.6772 33.154 26.4108C33.154 26.0536 33.2958 25.711 33.5483 25.4584C33.8007 25.2059 34.1431 25.064 34.5001 25.064ZM38.5386 42.5724C38.5386 41.7733 38.3017 40.9921 37.858 40.3277C37.4142 39.6632 36.7835 39.1454 36.0456 38.8395C35.3076 38.5337 34.4956 38.4537 33.7123 38.6096C32.9289 38.7655 32.2093 39.1503 31.6445 39.7154C31.0797 40.2805 30.6951 41.0004 30.5393 41.7841C30.3835 42.5679 30.4634 43.3803 30.7691 44.1186C31.0748 44.8569 31.5924 45.4879 32.2565 45.9319C32.9206 46.3758 33.7014 46.6128 34.5001 46.6128C35.5712 46.6128 36.5984 46.1871 37.3557 45.4294C38.1131 44.6717 38.5386 43.644 38.5386 42.5724ZM33.154 42.5724C33.154 42.306 33.2329 42.0456 33.3808 41.8241C33.5288 41.6027 33.739 41.43 33.985 41.3281C34.2309 41.2262 34.5016 41.1995 34.7627 41.2515C35.0239 41.3034 35.2637 41.4317 35.452 41.6201C35.6403 41.8084 35.7685 42.0484 35.8204 42.3096C35.8723 42.5709 35.8457 42.8417 35.7438 43.0878C35.6419 43.3339 35.4694 43.5442 35.248 43.6922C35.0266 43.8402 34.7664 43.9192 34.5001 43.9192C34.1431 43.9192 33.8007 43.7773 33.5483 43.5247C33.2958 43.2722 33.154 42.9296 33.154 42.5724ZM42.577 38.532C43.3757 38.532 44.1565 38.295 44.8206 37.8511C45.4847 37.4071 46.0024 36.7761 46.308 36.0378C46.6137 35.2995 46.6936 34.4871 46.5378 33.7033C46.382 32.9196 45.9974 32.1996 45.4326 31.6346C44.8678 31.0695 44.1482 30.6847 43.3648 30.5288C42.5815 30.3729 41.7695 30.4529 41.0315 30.7587C40.2936 31.0645 39.6629 31.5824 39.2192 32.2469C38.7754 32.9113 38.5386 33.6925 38.5386 34.4916C38.5386 35.5632 38.964 36.5909 39.7214 37.3486C40.4787 38.1063 41.5059 38.532 42.577 38.532ZM42.577 33.1448C42.8432 33.1448 43.1035 33.2238 43.3249 33.3718C43.5462 33.5198 43.7188 33.7301 43.8207 33.9762C43.9226 34.2223 43.9492 34.4931 43.8973 34.7543C43.8453 35.0156 43.7171 35.2556 43.5289 35.4439C43.3406 35.6323 43.1007 35.7605 42.8396 35.8125C42.5785 35.8645 42.3078 35.8378 42.0618 35.7359C41.8159 35.6339 41.6056 35.4613 41.4577 35.2398C41.3098 35.0183 41.2308 34.758 41.2308 34.4916C41.2308 34.1344 41.3727 33.7918 41.6251 33.5393C41.8776 33.2867 42.22 33.1448 42.577 33.1448ZM26.4233 30.4512C25.6245 30.4512 24.8437 30.6881 24.1796 31.1321C23.5155 31.5761 22.9979 32.2071 22.6922 32.9454C22.3866 33.6837 22.3066 34.4961 22.4624 35.2798C22.6182 36.0636 23.0029 36.7835 23.5677 37.3486C24.1324 37.9136 24.852 38.2985 25.6354 38.4544C26.4188 38.6103 27.2308 38.5302 27.9687 38.2244C28.7066 37.9186 29.3373 37.4008 29.7811 36.7363C30.2248 36.0719 30.4617 35.2907 30.4617 34.4916C30.4617 33.42 30.0362 32.3923 29.2789 31.6346C28.5215 30.8769 27.4943 30.4512 26.4233 30.4512ZM26.4233 35.8384C26.157 35.8384 25.8967 35.7594 25.6754 35.6114C25.454 35.4634 25.2815 35.2531 25.1796 35.007C25.0777 34.7609 25.051 34.4901 25.103 34.2288C25.1549 33.9676 25.2831 33.7276 25.4714 33.5393C25.6596 33.3509 25.8995 33.2226 26.1606 33.1707C26.4218 33.1187 26.6924 33.1454 26.9384 33.2473C27.1844 33.3492 27.3946 33.5219 27.5425 33.7433C27.6904 33.9648 27.7694 34.2252 27.7694 34.4916C27.7694 34.8488 27.6276 35.1913 27.3751 35.4439C27.1227 35.6965 26.7803 35.8384 26.4233 35.8384Z" fill="#201D1F"/>
</svg>
